<mxfile host="app.diagrams.net" modified="2021-09-09T15:54:07.372Z" agent="5.0 (Macintosh; Intel Mac OS X 10_15_7) AppleWebKit/537.36 (KHTML, like Gecko) Chrome/93.0.4577.63 Safari/537.36" etag="GAmtRvqLq03SOme-Rs3d" version="14.9.7" type="github" pages="2">
  <diagram id="dENaz6ImrjyekTZDpWiP" name="data-pipeline">
    <mxGraphModel dx="1346" dy="659" grid="1" gridSize="10" guides="1" tooltips="1" connect="1" arrows="1" fold="1" page="1" pageScale="1" pageWidth="850" pageHeight="1100" math="0" shadow="0">
      <root>
        <mxCell id="0" />
        <mxCell id="1" parent="0" />
        <mxCell id="Mzzxjy7jzF-vHw1KmqbQ-26" style="edgeStyle=orthogonalEdgeStyle;rounded=0;orthogonalLoop=1;jettySize=auto;html=1;entryX=-0.004;entryY=0.583;entryDx=0;entryDy=0;entryPerimeter=0;" parent="1" target="Mzzxjy7jzF-vHw1KmqbQ-2" edge="1">
          <mxGeometry relative="1" as="geometry">
            <mxPoint x="104.60000000000002" y="317.1" as="sourcePoint" />
          </mxGeometry>
        </mxCell>
        <mxCell id="Mzzxjy7jzF-vHw1KmqbQ-1" value="flatfile" style="verticalLabelPosition=bottom;html=1;verticalAlign=top;strokeWidth=1;align=center;outlineConnect=0;dashed=0;outlineConnect=0;shape=mxgraph.aws3d.file;aspect=fixed;strokeColor=#292929;" parent="1" vertex="1">
          <mxGeometry x="70" y="272.9" width="30.8" height="70.6" as="geometry" />
        </mxCell>
        <mxCell id="Mzzxjy7jzF-vHw1KmqbQ-7" style="edgeStyle=orthogonalEdgeStyle;rounded=0;orthogonalLoop=1;jettySize=auto;html=1;" parent="1" source="Mzzxjy7jzF-vHw1KmqbQ-2" target="Mzzxjy7jzF-vHw1KmqbQ-6" edge="1">
          <mxGeometry relative="1" as="geometry" />
        </mxCell>
        <mxCell id="Mzzxjy7jzF-vHw1KmqbQ-2" value="raw-folder" style="html=1;verticalLabelPosition=bottom;align=center;labelBackgroundColor=#ffffff;verticalAlign=top;strokeWidth=2;strokeColor=#0080F0;shadow=0;dashed=0;shape=mxgraph.ios7.icons.folder;" parent="1" vertex="1">
          <mxGeometry x="198.85" y="230" width="89.23" height="58" as="geometry" />
        </mxCell>
        <mxCell id="Mzzxjy7jzF-vHw1KmqbQ-10" style="edgeStyle=orthogonalEdgeStyle;rounded=0;orthogonalLoop=1;jettySize=auto;html=1;" parent="1" source="Mzzxjy7jzF-vHw1KmqbQ-6" edge="1">
          <mxGeometry relative="1" as="geometry">
            <mxPoint x="340" y="378" as="targetPoint" />
          </mxGeometry>
        </mxCell>
        <mxCell id="Mzzxjy7jzF-vHw1KmqbQ-6" value="work-folder" style="html=1;verticalLabelPosition=bottom;align=center;labelBackgroundColor=#ffffff;verticalAlign=top;strokeWidth=2;strokeColor=#0080F0;shadow=0;dashed=0;shape=mxgraph.ios7.icons.folder;" parent="1" vertex="1">
          <mxGeometry x="200" y="350" width="86.92" height="56.5" as="geometry" />
        </mxCell>
        <mxCell id="Mzzxjy7jzF-vHw1KmqbQ-13" style="edgeStyle=orthogonalEdgeStyle;rounded=0;orthogonalLoop=1;jettySize=auto;html=1;entryX=0;entryY=0.5;entryDx=0;entryDy=0;" parent="1" source="Mzzxjy7jzF-vHw1KmqbQ-9" target="Mzzxjy7jzF-vHw1KmqbQ-11" edge="1">
          <mxGeometry relative="1" as="geometry" />
        </mxCell>
        <mxCell id="Mzzxjy7jzF-vHw1KmqbQ-9" value="Staging" style="swimlane;rounded=0;glass=0;sketch=1;" parent="1" vertex="1">
          <mxGeometry x="340" y="343.5" width="150" height="160" as="geometry" />
        </mxCell>
        <mxCell id="Mzzxjy7jzF-vHw1KmqbQ-3" value="" style="outlineConnect=0;dashed=0;verticalLabelPosition=bottom;verticalAlign=top;align=center;html=1;shape=mxgraph.aws3.ms_sql_instance;fillColor=#2E73B8;gradientColor=none;" parent="Mzzxjy7jzF-vHw1KmqbQ-9" vertex="1">
          <mxGeometry x="45" y="47.75" width="60" height="64.5" as="geometry" />
        </mxCell>
        <mxCell id="Rh-5E4DgpZUA77pRQ456-2" value="SSIS" style="rounded=0;whiteSpace=wrap;html=1;" parent="Mzzxjy7jzF-vHw1KmqbQ-9" vertex="1">
          <mxGeometry x="40" y="120.75" width="70" height="30" as="geometry" />
        </mxCell>
        <mxCell id="Mzzxjy7jzF-vHw1KmqbQ-28" style="edgeStyle=orthogonalEdgeStyle;rounded=0;orthogonalLoop=1;jettySize=auto;html=1;entryX=0;entryY=0.75;entryDx=0;entryDy=0;" parent="1" source="Mzzxjy7jzF-vHw1KmqbQ-11" target="Mzzxjy7jzF-vHw1KmqbQ-27" edge="1">
          <mxGeometry relative="1" as="geometry">
            <Array as="points">
              <mxPoint x="920" y="489" />
              <mxPoint x="920" y="435" />
              <mxPoint x="982" y="435" />
            </Array>
          </mxGeometry>
        </mxCell>
        <mxCell id="Mzzxjy7jzF-vHw1KmqbQ-11" value="Data Warehouse" style="swimlane;rounded=0;glass=0;sketch=1;" parent="1" vertex="1">
          <mxGeometry x="550" y="287.75" width="320" height="271.5" as="geometry" />
        </mxCell>
        <mxCell id="Mzzxjy7jzF-vHw1KmqbQ-20" style="edgeStyle=orthogonalEdgeStyle;rounded=0;orthogonalLoop=1;jettySize=auto;html=1;exitX=1;exitY=0.5;exitDx=0;exitDy=0;entryX=0;entryY=0.5;entryDx=0;entryDy=0;" parent="Mzzxjy7jzF-vHw1KmqbQ-11" source="Mzzxjy7jzF-vHw1KmqbQ-16" target="Mzzxjy7jzF-vHw1KmqbQ-17" edge="1">
          <mxGeometry relative="1" as="geometry" />
        </mxCell>
        <mxCell id="Mzzxjy7jzF-vHw1KmqbQ-16" value="Stage" style="rounded=0;whiteSpace=wrap;html=1;glass=0;sketch=1;" parent="Mzzxjy7jzF-vHw1KmqbQ-11" vertex="1">
          <mxGeometry x="20" y="78.25" width="60" height="30" as="geometry" />
        </mxCell>
        <mxCell id="Mzzxjy7jzF-vHw1KmqbQ-43" style="edgeStyle=orthogonalEdgeStyle;rounded=0;orthogonalLoop=1;jettySize=auto;html=1;entryX=0;entryY=0.5;entryDx=0;entryDy=0;entryPerimeter=0;" parent="Mzzxjy7jzF-vHw1KmqbQ-11" source="Mzzxjy7jzF-vHw1KmqbQ-17" target="Mzzxjy7jzF-vHw1KmqbQ-42" edge="1">
          <mxGeometry relative="1" as="geometry" />
        </mxCell>
        <mxCell id="Mzzxjy7jzF-vHw1KmqbQ-17" value="ETL" style="rounded=0;whiteSpace=wrap;html=1;glass=0;sketch=1;" parent="Mzzxjy7jzF-vHw1KmqbQ-11" vertex="1">
          <mxGeometry x="110" y="63.25" width="120" height="60" as="geometry" />
        </mxCell>
        <mxCell id="Mzzxjy7jzF-vHw1KmqbQ-42" value="Dimensional model" style="shape=cylinder3;whiteSpace=wrap;html=1;boundedLbl=1;backgroundOutline=1;size=15;rounded=0;glass=0;sketch=1;" parent="Mzzxjy7jzF-vHw1KmqbQ-11" vertex="1">
          <mxGeometry x="210" y="176.5" width="80" height="83.5" as="geometry" />
        </mxCell>
        <mxCell id="efaO1HzX_dBpww613xNZ-1" value="" style="shape=image;verticalLabelPosition=bottom;labelBackgroundColor=#ffffff;verticalAlign=top;aspect=fixed;imageAspect=0;image=https://docs.snowflake.com/en/_static/snowflake-logo-blue.png;" parent="Mzzxjy7jzF-vHw1KmqbQ-11" vertex="1">
          <mxGeometry x="170" y="33.25" width="130" height="30" as="geometry" />
        </mxCell>
        <mxCell id="Rh-5E4DgpZUA77pRQ456-3" value="SSIS" style="rounded=0;whiteSpace=wrap;html=1;" parent="Mzzxjy7jzF-vHw1KmqbQ-11" vertex="1">
          <mxGeometry x="135" y="108.25" width="70" height="30" as="geometry" />
        </mxCell>
        <mxCell id="Mzzxjy7jzF-vHw1KmqbQ-44" value="BI" style="swimlane;rounded=0;glass=0;sketch=1;" parent="1" vertex="1">
          <mxGeometry x="970" y="287.75" width="150" height="297" as="geometry" />
        </mxCell>
        <mxCell id="Mzzxjy7jzF-vHw1KmqbQ-47" style="edgeStyle=orthogonalEdgeStyle;rounded=0;orthogonalLoop=1;jettySize=auto;html=1;entryX=0.5;entryY=0;entryDx=0;entryDy=0;" parent="Mzzxjy7jzF-vHw1KmqbQ-44" source="Mzzxjy7jzF-vHw1KmqbQ-27" target="Mzzxjy7jzF-vHw1KmqbQ-46" edge="1">
          <mxGeometry relative="1" as="geometry" />
        </mxCell>
        <mxCell id="Mzzxjy7jzF-vHw1KmqbQ-27" value="" style="shape=image;verticalLabelPosition=bottom;labelBackgroundColor=#ffffff;verticalAlign=top;aspect=fixed;imageAspect=0;image=https://sereviso.com/wp-content/uploads/2018/06/power-bi-1.jpg;" parent="Mzzxjy7jzF-vHw1KmqbQ-44" vertex="1">
          <mxGeometry x="24.310000000000013" y="112.75" width="106.79" height="46" as="geometry" />
        </mxCell>
        <mxCell id="Mzzxjy7jzF-vHw1KmqbQ-46" value="" style="shape=image;verticalLabelPosition=bottom;labelBackgroundColor=#ffffff;verticalAlign=top;aspect=fixed;imageAspect=0;image=https://images.squarespace-cdn.com/content/v1/5dabbab8b6c1842bf803ac3c/1603849332264-DI52L7YIL0VXX3YOS6BF/power_bi_service.png;" parent="Mzzxjy7jzF-vHw1KmqbQ-44" vertex="1">
          <mxGeometry x="27.010000000000005" y="203.25" width="101.38" height="59" as="geometry" />
        </mxCell>
        <mxCell id="Mzzxjy7jzF-vHw1KmqbQ-48" style="edgeStyle=orthogonalEdgeStyle;rounded=0;orthogonalLoop=1;jettySize=auto;html=1;exitX=0.5;exitY=1;exitDx=0;exitDy=0;exitPerimeter=0;entryX=0.906;entryY=1.024;entryDx=0;entryDy=0;entryPerimeter=0;" parent="1" source="Mzzxjy7jzF-vHw1KmqbQ-42" target="Mzzxjy7jzF-vHw1KmqbQ-6" edge="1">
          <mxGeometry relative="1" as="geometry">
            <Array as="points">
              <mxPoint x="800" y="610" />
              <mxPoint x="239" y="610" />
            </Array>
          </mxGeometry>
        </mxCell>
        <mxCell id="31fjQiIwZ0FFv5k6WQob-2" style="edgeStyle=orthogonalEdgeStyle;rounded=0;orthogonalLoop=1;jettySize=auto;html=1;" edge="1" parent="1" source="31fjQiIwZ0FFv5k6WQob-1" target="Mzzxjy7jzF-vHw1KmqbQ-1">
          <mxGeometry relative="1" as="geometry" />
        </mxCell>
        <mxCell id="31fjQiIwZ0FFv5k6WQob-1" value="Data Generator" style="rounded=1;whiteSpace=wrap;html=1;" vertex="1" parent="1">
          <mxGeometry x="25.4" y="160" width="120" height="60" as="geometry" />
        </mxCell>
      </root>
    </mxGraphModel>
  </diagram>
  <diagram id="1Oy2b3UEj91rFwWN2j8O" name="data-state">
    <mxGraphModel dx="1038" dy="579" grid="1" gridSize="10" guides="1" tooltips="1" connect="1" arrows="1" fold="1" page="1" pageScale="1" pageWidth="850" pageHeight="1100" math="0" shadow="0">
      <root>
        <mxCell id="JjxYdN48UUtYLLZxswHN-0" />
        <mxCell id="JjxYdN48UUtYLLZxswHN-1" parent="JjxYdN48UUtYLLZxswHN-0" />
        <mxCell id="MCWnTl7VxA7wRKekG7yr-2" value="working-folder" style="html=1;verticalLabelPosition=bottom;align=center;labelBackgroundColor=#ffffff;verticalAlign=top;strokeWidth=2;strokeColor=#0080F0;shadow=0;dashed=0;shape=mxgraph.ios7.icons.folder;" vertex="1" parent="JjxYdN48UUtYLLZxswHN-1">
          <mxGeometry x="170" y="280" width="30" height="19.5" as="geometry" />
        </mxCell>
        <mxCell id="MCWnTl7VxA7wRKekG7yr-3" value="" style="outlineConnect=0;dashed=0;verticalLabelPosition=bottom;verticalAlign=top;align=center;html=1;shape=mxgraph.aws3.ms_sql_instance;fillColor=#2E73B8;gradientColor=none;" vertex="1" parent="JjxYdN48UUtYLLZxswHN-1">
          <mxGeometry x="270" y="320" width="60" height="64.5" as="geometry" />
        </mxCell>
        <mxCell id="MCWnTl7VxA7wRKekG7yr-4" value="" style="outlineConnect=0;dashed=0;verticalLabelPosition=bottom;verticalAlign=top;align=center;html=1;shape=mxgraph.aws3.postgre_sql_instance;fillColor=#2E73B8;gradientColor=none;" vertex="1" parent="JjxYdN48UUtYLLZxswHN-1">
          <mxGeometry x="270" y="430" width="60" height="63" as="geometry" />
        </mxCell>
        <mxCell id="MCWnTl7VxA7wRKekG7yr-5" value="" style="outlineConnect=0;dashed=0;verticalLabelPosition=bottom;verticalAlign=top;align=center;html=1;shape=mxgraph.aws3.mysql_db_instance;fillColor=#2E73B8;gradientColor=none;" vertex="1" parent="JjxYdN48UUtYLLZxswHN-1">
          <mxGeometry x="270" y="520" width="60" height="64.5" as="geometry" />
        </mxCell>
        <mxCell id="MCWnTl7VxA7wRKekG7yr-6" value="collect" style="swimlane;rounded=0;glass=0;sketch=1;" vertex="1" parent="JjxYdN48UUtYLLZxswHN-1">
          <mxGeometry x="50" y="240" width="200" height="440" as="geometry" />
        </mxCell>
        <mxCell id="MCWnTl7VxA7wRKekG7yr-7" value="process" style="swimlane;rounded=0;glass=0;sketch=1;" vertex="1" parent="JjxYdN48UUtYLLZxswHN-1">
          <mxGeometry x="270" y="240" width="200" height="440" as="geometry" />
        </mxCell>
        <mxCell id="MCWnTl7VxA7wRKekG7yr-8" value="store" style="swimlane;rounded=0;glass=0;sketch=1;" vertex="1" parent="JjxYdN48UUtYLLZxswHN-1">
          <mxGeometry x="510" y="240" width="200" height="440" as="geometry" />
        </mxCell>
        <mxCell id="MCWnTl7VxA7wRKekG7yr-9" value="serve" style="swimlane;rounded=0;glass=0;sketch=1;" vertex="1" parent="JjxYdN48UUtYLLZxswHN-1">
          <mxGeometry x="730" y="241.5" width="200" height="440" as="geometry" />
        </mxCell>
        <mxCell id="MCWnTl7VxA7wRKekG7yr-10" value="" style="outlineConnect=0;dashed=0;verticalLabelPosition=bottom;verticalAlign=top;align=center;html=1;shape=mxgraph.aws3.ms_sql_instance;fillColor=#2E73B8;gradientColor=none;" vertex="1" parent="JjxYdN48UUtYLLZxswHN-1">
          <mxGeometry x="270" y="320" width="60" height="64.5" as="geometry" />
        </mxCell>
      </root>
    </mxGraphModel>
  </diagram>
</mxfile>
